HIERARCHY
ROOT Hips
{
	OFFSET 0.000000 0.000000 0.000000
	CHANNELS 6 Xposition Yposition Zposition Zrotation Yrotation Xrotation 
	JOINT LHipJoint
	{
		OFFSET 0.000000 0.000000 0.000000
		CHANNELS 3 Zrotation Yrotation Xrotation
		JOINT LeftUpLeg
		{
			OFFSET 1.363060 -1.794630 0.839290
			CHANNELS 3 Zrotation Yrotation Xrotation
			JOINT LeftLeg
			{
				OFFSET 2.448110 -6.726130 0.000000
				CHANNELS 3 Zrotation Yrotation Xrotation
				JOINT LeftFoot
				{
					OFFSET 2.562200 -7.039590 0.000000
					CHANNELS 3 Zrotation Yrotation Xrotation
					JOINT LeftToeBase
					{
						OFFSET 0.157640 -0.433110 2.322550
						CHANNELS 3 Zrotation Yrotation Xrotation
						End Site
						{
							OFFSET 0.000000 0.000000 0.000000
						}
					}
				}
			}
		}
	}
	JOINT RHipJoint
	{
		OFFSET 0.000000 0.000000 0.000000
		CHANNELS 3 Zrotation Yrotation Xrotation
		JOINT RightUpLeg
		{
			OFFSET -1.305520 -1.794630 0.839290
			CHANNELS 3 Zrotation Yrotation Xrotation
			JOINT RightLeg
			{
				OFFSET -2.542530 -6.985550 0.000000
				CHANNELS 3 Zrotation Yrotation Xrotation
				JOINT RightFoot
				{
					OFFSET -2.568260 -7.056230 0.000000
					CHANNELS 3 Zrotation Yrotation Xrotation
					JOINT RightToeBase
					{
						OFFSET -0.164730 -0.452590 2.363150
						CHANNELS 3 Zrotation Yrotation Xrotation
						End Site
						{
							OFFSET 0.000000 0.000000 0.000000
						}
					}
				}
			}
		}
	}
	JOINT LowerBack
	{
		OFFSET 0.000000 0.000000 0.000000
		CHANNELS 3 Zrotation Yrotation Xrotation
		JOINT Spine
		{
			OFFSET 0.028270 2.035590 -0.193380
			CHANNELS 3 Zrotation Yrotation Xrotation
			JOINT Spine1
			{
				OFFSET 0.056720 2.048850 -0.042750
				CHANNELS 3 Zrotation Yrotation Xrotation
				JOINT Neck
				{
					OFFSET 0.000000 0.000000 0.000000
					CHANNELS 3 Zrotation Yrotation Xrotation
					JOINT Neck1
					{
						OFFSET -0.054170 1.746240 0.172020
						CHANNELS 3 Zrotation Yrotation Xrotation
						JOINT Head
						{
							OFFSET 0.104070 1.761360 -0.123970
							CHANNELS 3 Zrotation Yrotation Xrotation
							End Site
							{
								OFFSET 0.000000 0.000000 0.000000
							}
						}
					}
				}
				JOINT LeftShoulder
				{
					OFFSET 0.000000 0.000000 0.000000
					CHANNELS 3 Zrotation Yrotation Xrotation
					JOINT LeftArm
					{
						OFFSET 3.362410 1.200890 -0.311210
						CHANNELS 3 Zrotation Yrotation Xrotation
						JOINT LeftForeArm
						{
							OFFSET 4.983000 -0.000000 -0.000000
							CHANNELS 3 Zrotation Yrotation Xrotation
							JOINT LeftHand
							{
								OFFSET 3.483560 -0.000000 -0.000000
								CHANNELS 3 Zrotation Yrotation Xrotation
								JOINT LeftFingerBase
								{
									OFFSET 0.000000 0.000000 0.000000
									CHANNELS 3 Zrotation Yrotation Xrotation
									JOINT LeftHandIndex1
									{
										OFFSET 0.715260 -0.000000 -0.000000
										CHANNELS 3 Zrotation Yrotation Xrotation
										End Site
										{
											OFFSET 0.000000 0.000000 0.000000
										}
									}
								}
								JOINT LThumb
								{
									OFFSET 0.000000 0.000000 0.000000
									CHANNELS 3 Zrotation Yrotation Xrotation
									End Site
									{
										OFFSET 0.000000 0.000000 0.000000
									}
								}
							}
						}
					}
				}
				JOINT RightShoulder
				{
					OFFSET 0.000000 0.000000 0.000000
					CHANNELS 3 Zrotation Yrotation Xrotation
					JOINT RightArm
					{
						OFFSET -3.136600 1.374050 -0.404650
						CHANNELS 3 Zrotation Yrotation Xrotation
						JOINT RightForeArm
						{
							OFFSET -5.241900 -0.000000 -0.000000
							CHANNELS 3 Zrotation Yrotation Xrotation
							JOINT RightHand
							{
								OFFSET -3.444170 -0.000000 -0.000000
								CHANNELS 3 Zrotation Yrotation Xrotation
								JOINT RightFingerBase
								{
									OFFSET 0.000000 0.000000 0.000000
									CHANNELS 3 Zrotation Yrotation Xrotation
									JOINT RightHandIndex1
									{
										OFFSET -0.622530 -0.000000 -0.000000
										CHANNELS 3 Zrotation Yrotation Xrotation
										End Site
										{
											OFFSET 0.000000 0.000000 0.000000
										}
									}
								}
								JOINT RThumb
								{
									OFFSET 0.000000 0.000000 0.000000
									CHANNELS 3 Zrotation Yrotation Xrotation
									End Site
									{
										OFFSET 0.000000 0.000000 0.000000
									}
								}
							}
						}
					}
				}
			}
		}
	}
}
MOTION
Frames: 12
Frame Time: 0.008333
1.213020 6.743527 -2.009831 2.586515 0.811708 -31.793283 0.580197 -1.127165 -2.155356 -0.655505 18.182268 -78.968771 33.389599 14.520655 133.262452 1.925072 -29.438886 -14.866500 0.390800 -4.014400 -11.117200 2.392102 1.009573 0.051573 0.694589 -9.311495 -86.639747 -33.352639 -12.776857 134.786476 -1.381538 6.341322 -5.514034 -2.346500 -9.553200 27.541700 -3.949398 1.837981 40.131922 0.014702 0.911070 7.230083 3.286703 -0.193398 -7.043244 0.110402 3.202087 -15.901759 0.915751 3.624907 1.776596 -0.739900 1.516300 4.336700 1.569240 6.084541 -0.894201 -90.034057 -29.871445 40.543232 72.277106 -61.604217 -41.698869 0.107877 0.591896 14.565191 -5.470227 -11.091527 1.103200 -7.125000 0.000000 0.000000 -22.370900 18.619000 15.263900 -0.151816 -7.739569 -2.137826 80.719049 35.668650 44.513971 -62.885985 63.739042 -35.768734 1.097766 -1.109349 14.083940 11.989016 -39.870161 -6.783300 7.125000 0.000000 0.000000 53.603800 -61.052600 -24.863800 
1.212718 6.746142 -2.003193 2.604858 0.789006 -31.563387 0.580805 -1.127421 -2.158805 -0.699859 18.125585 -79.223544 33.397654 14.509097 133.309556 1.917126 -29.453407 -14.829098 0.377900 -3.948300 -10.931400 2.391439 1.010642 0.053617 0.772494 -9.304385 -86.909880 -33.367157 -12.765353 134.835004 -1.375229 6.259917 -5.626664 -2.250000 -9.368500 26.954900 -3.995170 1.858199 40.334562 -0.006597 0.905204 7.222859 3.288202 -0.195104 -7.121041 0.345172 3.233257 -15.818864 0.608973 3.627429 1.824235 -0.871000 1.504300 4.350200 1.575170 6.063890 -0.896912 -89.852089 -29.486792 40.441259 74.770855 -61.839870 -43.604575 0.128746 0.634180 13.289738 -4.722768 -10.983421 0.950400 -7.125000 0.000000 0.000000 -21.910000 18.680000 14.862800 -0.149822 -7.740394 -2.139443 80.494093 35.620078 44.387267 -64.032492 63.982956 -36.618957 1.132482 -1.087826 13.299720 11.922528 -40.229346 -6.782000 7.125000 0.000000 0.000000 54.040000 -61.314600 -25.471300 
1.212115 6.747852 -1.994141 2.577946 0.744908 -31.331000 0.586467 -1.124068 -2.160241 -0.699690 18.146004 -79.502367 33.412281 14.492162 133.375273 1.913224 -29.475849 -14.821740 0.375700 -3.936700 -10.898700 2.388958 1.010622 0.055616 0.906241 -9.318971 -87.174184 -33.380777 -12.754325 134.882335 -1.376957 6.248376 -5.707515 -2.210500 -9.291400 26.711100 -3.981481 1.871018 40.499211 -0.012746 0.917331 7.210365 3.271550 -0.189318 -7.201924 0.382135 3.278642 -15.652925 0.576177 3.680091 1.830247 -0.883300 1.530900 4.329300 1.579279 6.050111 -0.903902 -89.623614 -29.143798 40.417716 77.036700 -61.994438 -45.344765 0.132691 0.661082 12.257007 -4.227475 -10.669389 0.831200 -7.125000 0.000000 0.000000 -21.632500 18.948500 14.502300 -0.146814 -7.734393 -2.141590 80.263147 35.625379 44.207886 -64.945085 64.165964 -37.304162 1.157516 -1.070687 12.802916 11.870559 -40.520602 -6.782100 7.125000 0.000000 0.000000 54.405000 -61.526000 -25.973500 
1.210304 6.751674 -1.985591 2.474623 0.712352 -31.155688 0.590670 -1.120904 -2.161583 -0.630046 18.146930 -79.670297 33.427094 14.477300 133.438384 1.910600 -29.450228 -14.800929 0.368200 -3.897400 -10.788200 2.386471 1.011808 0.055932 1.032193 -9.364374 -87.339899 -33.381863 -12.751006 134.894439 -1.388228 6.365863 -5.596193 -2.318100 -9.499500 27.370500 -3.961908 1.838690 40.639736 0.011066 0.881836 7.208321 3.301005 -0.208375 -7.254724 0.362686 3.384568 -15.344502 0.626775 3.818889 1.789520 -0.856500 1.604500 4.270800 1.583851 6.035575 -0.912627 -89.327076 -28.763672 40.312590 79.086228 -62.084737 -46.941156 0.135965 0.670087 11.509029 -4.007182 -10.415251 0.772800 -7.125000 0.000000 0.000000 -21.528300 19.177100 14.301400 -0.146702 -7.726357 -2.140795 80.154935 35.580600 44.118091 -65.875531 64.343329 -37.990075 1.184734 -1.055996 12.587794 11.862296 -40.655846 -6.784900 7.125000 0.000000 0.000000 54.596800 -61.631700 -26.231900 
1.207589 6.757809 -1.977243 2.259667 0.615385 -30.987892 0.601236 -1.114172 -2.160754 -0.398121 18.240084 -79.836482 33.447546 14.460085 133.500810 1.913477 -29.517380 -14.855105 0.367200 -3.892700 -10.774900 2.379482 1.008441 0.054510 1.326699 -9.325630 -87.443815 -33.379130 -12.755368 134.878738 -1.388701 6.378806 -5.565456 -2.399200 -9.652300 27.857800 -3.828304 1.777251 40.763606 0.058111 0.856921 7.198759 3.294696 -0.221703 -7.303701 0.448156 3.508350 -14.957973 0.549281 3.958725 1.668102 -0.887700 1.671800 4.180700 1.591249 6.014054 -0.919981 -89.108868 -28.403170 40.220685 80.834228 -62.127731 -48.311854 0.140586 0.658739 10.899605 -4.142444 -10.233272 0.787900 -7.125000 0.000000 0.000000 -21.652900 19.356100 14.303400 -0.149060 -7.725596 -2.138296 80.144238 35.434011 44.039894 -66.957117 64.533993 -38.779118 1.217037 -1.042523 12.532246 11.760859 -40.751163 -6.716200 7.125000 0.000000 0.000000 54.651000 -61.740300 -26.405200 
1.202057 6.766158 -1.976438 0.651950 -0.358898 -30.513254 0.701340 -1.052891 -2.141014 1.633184 19.390620 -80.917695 33.532137 14.384655 133.713980 1.775628 -30.555668 -14.672530 0.383100 -3.975000 -11.006400 2.315304 0.955831 0.036624 3.714145 -7.845182 -87.484297 -33.343381 -12.822344 134.615394 -1.244938 5.237866 -5.873429 -2.356600 -9.572400 27.602800 -2.140891 1.395884 40.776407 0.388673 1.072884 7.083558 2.767499 -0.123608 -7.472252 0.543095 3.599331 -14.660661 0.574353 4.054114 1.625239 -0.887100 1.724600 4.125200 1.599819 5.991416 -0.929616 -88.910776 -28.172004 40.239019 82.211513 -62.141383 -49.395574 0.139129 0.634519 10.412096 -4.469688 -9.994630 0.831600 -7.125000 0.000000 0.000000 -21.910800 19.599600 14.371800 -0.143441 -7.728939 -2.137996 80.173338 35.242754 43.868247 -67.926534 64.687356 -39.488507 1.246984 -1.031830 12.572743 11.734962 -40.815094 -6.692900 7.125000 0.000000 0.000000 54.727700 -61.809300 -26.542900 
1.197631 6.769879 -1.972616 0.246422 -0.620742 -30.222946 0.727152 -1.035420 -2.135559 2.123173 19.678191 -81.387358 33.551799 14.362485 133.781202 1.715589 -30.850670 -14.518094 0.382300 -3.970800 -10.994500 2.299022 0.945139 0.032202 4.369877 -7.407692 -87.704430 -33.332602 -12.839628 134.541121 -1.199899 4.900835 -5.947110 -2.276000 -9.418700 27.113900 -1.765080 1.323064 40.819509 0.476210 1.139513 7.035316 2.654324 -0.095134 -7.553382 0.536660 3.655759 -14.501091 0.722721 4.128742 1.730333 -0.834400 1.774200 4.131100 1.602534 5.985256 -0.940052 -88.710417 -28.016513 40.302337 83.382380 -62.137587 -50.319733 0.132244 0.601986 10.136702 -4.886341 -9.700279 0.881700 -7.125000 0.000000 0.000000 -22.233800 19.901500 14.455200 -0.146500 -7.718908 -2.133540 80.206859 35.055818 43.673984 -68.835962 64.819550 -40.154057 1.276125 -1.020300 12.515964 11.693976 -40.826923 -6.653500 7.125000 0.000000 0.000000 54.715600 -61.846900 -26.582700 
1.195217 6.771287 -1.966481 0.396291 -0.574767 -29.991624 0.724075 -1.036557 -2.138451 1.904758 19.596237 -81.617362 33.550422 14.356687 133.809845 1.699561 -30.814997 -14.410599 0.365200 -3.881700 -10.744100 2.302132 0.952407 0.034509 4.237043 -7.489357 -88.073134 -33.344368 -12.823896 134.599402 -1.211174 4.994818 -5.890932 -2.240600 -9.350200 26.897100 -1.969497 1.387064 40.832123 0.457517 1.139551 6.999942 2.729232 -0.095018 -7.600971 0.561663 3.697708 -14.338741 0.739746 4.183123 1.839897 -0.830100 1.806300 4.141900 1.607281 5.978964 -0.948072 -88.596234 -27.810495 40.370657 84.523344 -62.122030 -51.220288 0.126814 0.552883 10.041790 -5.542346 -9.441430 0.971400 -7.125000 0.000000 0.000000 -22.714100 20.181100 14.666500 -0.153569 -7.708673 -2.128994 80.238749 34.872363 43.466720 -69.777801 64.946317 -40.845144 1.307128 -1.007299 12.379242 11.706433 -40.869595 -6.653300 7.125000 0.000000 0.000000 54.795200 -61.890800 -26.690500 
1.194915 6.773098 -1.959038 0.454716 -0.559225 -29.776273 0.723989 -1.036579 -2.140542 1.795465 19.567192 -81.843236 33.554716 14.346513 133.853441 1.679441 -30.809119 -14.301315 0.341200 -3.753700 -10.384700 2.302779 0.955947 0.037112 4.203470 -7.596509 -88.375603 -33.358173 -12.808256 134.662934 -1.227698 5.119491 -5.857808 -2.265400 -9.398300 27.049300 -2.030956 1.402644 40.862530 0.443673 1.133230 6.943688 2.740443 -0.096030 -7.675240 0.618210 3.754797 -14.051644 0.681024 4.248239 1.833644 -0.855700 1.838700 4.101000 1.612952 5.968125 -0.953467 -88.547820 -27.623157 40.435086 85.419819 -62.101466 -51.930535 0.119649 0.502018 10.043865 -6.229204 -9.200456 1.060800 -7.125000 0.000000 0.000000 -23.211500 20.442400 14.897400 -0.158966 -7.705865 -2.127154 80.308624 34.725285 43.240859 -70.577103 65.044060 -41.435767 1.334503 -0.996914 12.378876 11.970976 -40.907335 -6.820800 7.125000 0.000000 0.000000 55.095200 -61.867700 -26.858100 
1.194614 6.773802 -1.952097 0.489048 -0.513477 -29.610698 0.720358 -1.038899 -2.144806 1.716861 19.465814 -82.010007 33.557631 14.339468 133.889265 1.667256 -30.764273 -14.210586 0.324100 -3.659400 -10.120200 2.305044 0.960187 0.039187 4.164477 -7.721631 -88.604620 -33.370163 -12.795297 134.716902 -1.240890 5.215026 -5.849897 -2.280000 -9.426400 27.138500 -2.093601 1.393018 40.861480 0.437983 1.096573 6.942691 2.775306 -0.113520 -7.667502 0.659652 3.819367 -13.834682 0.669633 4.325849 1.851599 -0.862100 1.879700 4.076500 1.615622 5.964512 -0.957273 -88.535590 -27.572286 40.450660 85.951556 -62.083356 -52.361066 0.109917 0.465028 10.094346 -6.734601 -8.985963 1.117100 -7.125000 0.000000 0.000000 -23.581100 20.667400 15.048100 -0.162560 -7.705414 -2.127203 80.404734 34.684787 43.047120 -71.143488 65.109324 -41.854936 1.354484 -0.990275 12.471865 12.209925 -40.843926 -6.960500 7.125000 0.000000 0.000000 55.226200 -61.783500 -26.836600 
1.195418 6.774003 -1.945560 0.591698 -0.501624 -29.442673 0.717652 -1.040475 -2.149433 1.585302 19.385525 -82.174591 33.561763 14.331967 133.927686 1.663888 -30.702234 -14.157399 0.318100 -3.625400 -10.025100 2.306712 0.965669 0.038726 4.067388 -7.753920 -88.846285 -33.380973 -12.782446 134.766363 -1.246115 5.258949 -5.824929 -2.295900 -9.456900 27.235300 -2.239340 1.418324 40.758487 0.437432 1.074793 6.992094 2.855968 -0.126311 -7.560746 0.708932 3.902710 -13.637027 0.640072 4.427646 1.862219 -0.873500 1.931300 4.053100 1.617978 5.963824 -0.959050 -88.565495 -27.573383 40.427140 86.315438 -62.067615 -52.661604 0.101473 0.440291 10.192736 -7.077586 -8.833129 1.151600 -7.125000 0.000000 0.000000 -23.831800 20.825400 15.145600 -0.165183 -7.707753 -2.128792 80.491415 34.723037 42.914814 -71.599904 65.162649 -42.193436 1.370225 -0.985138 12.453441 12.247282 -40.810779 -6.972800 7.125000 0.000000 0.000000 55.215200 -61.763800 -26.804100 
1.196927 6.775110 -1.939726 0.713286 -0.548995 -29.295877 0.719154 -1.039133 -2.151471 1.466803 19.395358 -82.303441 33.566898 14.323930 133.964750 1.656000 -30.676649 -14.103749 0.310100 -3.580300 -9.898800 2.305741 0.970160 0.036726 3.955023 -7.687561 -89.052476 -33.384737 -12.773074 134.794122 -1.257414 5.365385 -5.729066 -2.345700 -9.551800 27.537000 -2.396442 1.466594 40.679530 0.450037 1.079644 7.023414 2.949305 -0.127068 -7.487026 0.728873 4.001077 -13.391506 0.582839 4.555278 1.845578 -0.887700 1.993500 4.014600 1.620819 5.960769 -0.959665 -88.581732 -27.530024 40.401644 86.629893 -62.053281 -52.920998 0.091568 0.421346 10.266071 -7.333162 -8.665180 1.168400 -7.125000 0.000000 0.000000 -24.026200 20.993700 15.192400 -0.166950 -7.709695 -2.130899 80.530916 34.746356 42.840448 -72.106531 65.221142 -42.569425 1.386123 -0.979045 12.261350 12.080721 -40.918946 -6.870200 7.125000 0.000000 0.000000 55.220100 -61.880800 -26.957100 
